<?xml version="1.0" encoding="iso-8859-1"?>
<!-- Generator: Adobe Illustrator 19.0.0, SVG Export Plug-In . SVG Version: 6.00 Build 0)  -->
<svg version="1.1" id="Capa_1" xmlns="http://www.w3.org/2000/svg" xmlns:xlink="http://www.w3.org/1999/xlink" x="0px" y="0px"
	 viewBox="0 0 511 511" style="enable-background:new 0 0 511 511;" xml:space="preserve">
<g>
	<polygon points="251,183.5 236,183.5 236,259.657 303.525,301.86 311.475,289.14 251,251.343 	"/>
	<path d="M427,295v-79h-28.953c-6.419-25.1-18.812-47.831-35.562-66.596l0.198-0.06L337.08,64H323V0H164v64h-14.08l-25.604,85.345
		l0.198,0.06C99.333,177.615,84,214.798,84,255.5c0,40.702,15.333,77.885,40.515,106.096l-0.197,0.059L149.922,447H164v64h159v-64
		h14.082l25.604-85.345l-0.2-0.06c16.75-18.764,29.143-41.495,35.561-66.595H427z M412,231v49h-10.881
		c1.237-7.989,1.881-16.17,1.881-24.5s-0.645-16.511-1.881-24.5H412z M179,15h129v49H179V15z M161.08,79h164.84l15.117,50.39
		C314.052,108.471,280.207,96,243.5,96s-70.552,12.471-97.537,33.39L161.08,79z M308,496H179v-49h129V496z M325.922,432h-164.84
		l-15.116-50.388C172.95,402.529,206.794,415,243.5,415c36.708,0,70.554-12.472,97.539-33.392L325.922,432z M243.5,400
		C163.822,400,99,335.178,99,255.5S163.822,111,243.5,111S388,175.822,388,255.5S323.178,400,243.5,400z"/>
	<path d="M243.5,128C173.196,128,116,185.196,116,255.5S173.196,383,243.5,383S371,325.804,371,255.5S313.804,128,243.5,128z
		 M251,367.744V351.5h-15v16.244C179.931,364.035,134.965,319.069,131.256,263h16.245v-15h-16.245
		c3.709-56.069,48.675-101.035,104.744-104.744V159.5h15v-16.244c56.069,3.709,101.035,48.676,104.744,104.744h-16.243v15h16.243
		C352.035,319.069,307.069,364.035,251,367.744z"/>
	<path d="M295.593,175.447c-8.058-5.253-16.823-9.24-26.05-11.851l-4.083,14.434c7.77,2.198,15.152,5.557,21.941,9.982
		L295.593,175.447z"/>
	<path d="M309.036,186.035l-10.295,10.909c12.556,11.85,20.831,27.033,23.931,43.908l14.753-2.71
		C333.745,218.108,323.928,200.09,309.036,186.035z"/>
</g>
<g>
</g>
<g>
</g>
<g>
</g>
<g>
</g>
<g>
</g>
<g>
</g>
<g>
</g>
<g>
</g>
<g>
</g>
<g>
</g>
<g>
</g>
<g>
</g>
<g>
</g>
<g>
</g>
<g>
</g>
</svg>
